<svg width="282" height="47" viewBox="0 0 282 47" fill="none" xmlns="http://www.w3.org/2000/svg">
<path d="M185.493 7.72239C185.011 7.84586 184.471 7.90198 183.897 7.90198C183.3 7.90198 182.749 7.81218 182.244 7.62137C181.739 7.43055 181.303 7.17239 180.947 6.83566C180.58 6.49892 180.293 6.09484 180.086 5.62341C179.891 5.15198 179.788 4.62443 179.788 4.04076C179.788 3.45708 179.891 2.92953 180.098 2.44688C180.304 1.97545 180.591 1.57137 180.959 1.23463C181.326 0.8979 181.751 0.65096 182.244 0.471368C182.738 0.291777 183.277 0.201981 183.84 0.201981C184.437 0.201981 184.988 0.280551 185.493 0.460144C185.998 0.639736 186.411 0.87545 186.733 1.16729L185.585 2.44688C185.413 2.24484 185.183 2.07647 184.896 1.953C184.598 1.81831 184.276 1.76218 183.909 1.76218C183.587 1.76218 183.3 1.81831 183.025 1.93055C182.761 2.0428 182.531 2.19994 182.336 2.40198C182.129 2.60402 181.98 2.85096 181.877 3.13157C181.762 3.41218 181.705 3.71525 181.705 4.04076C181.705 4.37749 181.762 4.69177 181.854 4.97239C181.957 5.253 182.095 5.49994 182.29 5.70198C182.485 5.90402 182.726 6.06117 183.013 6.17341C183.3 6.29688 183.622 6.353 183.989 6.353C184.207 6.353 184.402 6.33055 184.598 6.3081C184.781 6.27443 184.965 6.21831 185.126 6.15096V4.81525H183.691V3.38973H186.779V7.27341C186.411 7.453 185.987 7.61014 185.493 7.72239Z" fill="#414145"/>
<path d="M196.662 4.01831C196.662 3.70403 196.605 3.41218 196.502 3.13157C196.398 2.86218 196.249 2.62647 196.065 2.42443C195.87 2.23362 195.652 2.07647 195.388 1.96422C195.124 1.85198 194.826 1.78463 194.516 1.78463C194.194 1.78463 193.907 1.85198 193.643 1.96422C193.379 2.07647 193.161 2.23362 192.966 2.42443C192.782 2.62647 192.633 2.86218 192.53 3.13157C192.426 3.41218 192.381 3.70403 192.381 4.01831C192.381 4.35504 192.426 4.6581 192.53 4.93872C192.645 5.21932 192.782 5.45504 192.977 5.65708C193.161 5.85912 193.379 6.01627 193.643 6.12851C193.907 6.24076 194.194 6.29688 194.516 6.29688C194.826 6.29688 195.124 6.24076 195.377 6.12851C195.641 6.01627 195.87 5.85912 196.054 5.65708C196.249 5.45504 196.398 5.21932 196.502 4.93872C196.605 4.6581 196.662 4.35504 196.662 4.01831ZM198.591 4.01831C198.591 4.60198 198.488 5.12953 198.292 5.61218C198.086 6.09484 197.799 6.49892 197.431 6.83566C197.076 7.18362 196.639 7.44177 196.146 7.63259C195.641 7.82341 195.101 7.91321 194.516 7.91321C193.93 7.91321 193.391 7.82341 192.886 7.63259C192.392 7.44177 191.967 7.18362 191.6 6.83566C191.233 6.49892 190.957 6.09484 190.75 5.61218C190.544 5.12953 190.441 4.60198 190.441 4.01831C190.441 3.43463 190.544 2.90708 190.75 2.43566C190.957 1.96422 191.233 1.56014 191.6 1.23463C191.967 0.8979 192.392 0.65096 192.886 0.471368C193.391 0.291777 193.93 0.201981 194.516 0.201981C195.101 0.201981 195.641 0.291777 196.146 0.471368C196.639 0.65096 197.076 0.8979 197.431 1.23463C197.799 1.56014 198.086 1.96422 198.292 2.43566C198.488 2.90708 198.591 3.43463 198.591 4.01831Z" fill="#414145"/>
<path d="M206.029 7.71118H204.216L201.38 0.392815H203.412L205.146 5.58975H205.191L206.913 0.392815H208.911L206.029 7.71118Z" fill="#414145"/>
<path d="M212.056 7.71118V0.392815H217.084V1.88567H213.801V3.26629H216.912V4.68057H213.801V6.2071H217.279V7.71118H212.056Z" fill="#414145"/>
<path d="M224.937 2.63771C224.937 2.46934 224.891 2.32343 224.821 2.2224C224.752 2.11016 224.65 2.03159 224.534 1.97547C224.419 1.90812 224.282 1.87444 224.144 1.85199C223.995 1.82955 223.857 1.81833 223.719 1.81833H222.755V3.52444H223.616C223.766 3.52444 223.914 3.51322 224.076 3.49077C224.224 3.46833 224.374 3.42343 224.5 3.35608C224.627 3.29996 224.729 3.21016 224.81 3.09792C224.891 2.97444 224.937 2.82853 224.937 2.63771ZM225.005 7.71118L223.386 4.80404H222.766V7.71118H220.999V0.392815H223.857C224.213 0.392815 224.569 0.426488 224.902 0.50506C225.246 0.572406 225.556 0.695875 225.831 0.875467C226.095 1.04384 226.314 1.26833 226.474 1.54894C226.635 1.82955 226.715 2.18874 226.715 2.60404C226.715 3.09792 226.578 3.52444 226.303 3.86118C226.039 4.19792 225.648 4.43363 225.166 4.57955L227.118 7.71118H225.005Z" fill="#414145"/>
<path d="M235.29 7.71118L232.283 2.92955H232.248L232.294 7.71118H230.538V0.392815H232.593L235.6 5.17444H235.635L235.589 0.392815H237.345V7.71118H235.29Z" fill="#414145"/>
<path d="M247.286 4.01831C247.286 3.70403 247.229 3.41218 247.126 3.13157C247.022 2.86218 246.874 2.62647 246.689 2.42443C246.506 2.23362 246.277 2.07647 246.013 1.96422C245.749 1.85198 245.462 1.78463 245.14 1.78463C244.818 1.78463 244.531 1.85198 244.267 1.96422C244.015 2.07647 243.786 2.23362 243.59 2.42443C243.406 2.62647 243.258 2.86218 243.154 3.13157C243.05 3.41218 243.004 3.70403 243.004 4.01831C243.004 4.35504 243.05 4.6581 243.165 4.93872C243.268 5.21932 243.418 5.45504 243.601 5.65708C243.786 5.85912 244.015 6.01627 244.267 6.12851C244.531 6.24076 244.818 6.29688 245.14 6.29688C245.462 6.29688 245.749 6.24076 246.001 6.12851C246.265 6.01627 246.494 5.85912 246.678 5.65708C246.874 5.45504 247.022 5.21932 247.126 4.93872C247.229 4.6581 247.286 4.35504 247.286 4.01831ZM249.215 4.01831C249.215 4.60198 249.123 5.12953 248.916 5.61218C248.71 6.09484 248.423 6.49892 248.067 6.83566C247.7 7.18362 247.263 7.44177 246.77 7.63259C246.265 7.82341 245.726 7.91321 245.14 7.91321C244.554 7.91321 244.015 7.82341 243.522 7.63259C243.016 7.44177 242.591 7.18362 242.224 6.83566C241.869 6.49892 241.582 6.09484 241.374 5.61218C241.168 5.12953 241.064 4.60198 241.064 4.01831C241.064 3.43463 241.168 2.90708 241.374 2.43566C241.582 1.96422 241.869 1.56014 242.224 1.23463C242.591 0.8979 243.016 0.65096 243.522 0.471368C244.015 0.291777 244.554 0.201981 245.14 0.201981C245.726 0.201981 246.265 0.291777 246.77 0.471368C247.263 0.65096 247.7 0.8979 248.067 1.23463C248.423 1.56014 248.71 1.96422 248.916 2.43566C249.123 2.90708 249.215 3.43463 249.215 4.01831Z" fill="#414145"/>
<path d="M263.22 4.02955C263.22 3.62547 263.151 3.27751 263.014 3.00812C262.876 2.73874 262.692 2.51425 262.463 2.3571C262.232 2.18874 261.968 2.07649 261.681 2.00915C261.383 1.94179 261.084 1.90812 260.775 1.90812H259.88V6.18465H260.741C261.062 6.18465 261.371 6.15098 261.67 6.0724C261.968 6.00506 262.232 5.88159 262.463 5.72444C262.692 5.55608 262.876 5.33159 263.014 5.0622C263.151 4.78159 263.22 4.44485 263.22 4.02955ZM265.103 4.02955C265.103 4.66934 264.976 5.23057 264.735 5.69077C264.494 6.1622 264.172 6.54384 263.771 6.83567C263.38 7.13874 262.933 7.36322 262.428 7.49792C261.922 7.64384 261.417 7.71118 260.901 7.71118H258.111V0.392815H260.82C261.349 0.392815 261.866 0.460161 262.382 0.572406C262.899 0.695875 263.357 0.897916 263.76 1.17853C264.161 1.45914 264.482 1.82955 264.735 2.30098C264.976 2.76118 265.103 3.34485 265.103 4.02955Z" fill="#414145"/>
<path d="M274.688 4.01831C274.688 3.70403 274.642 3.41218 274.538 3.13157C274.423 2.86218 274.286 2.62647 274.091 2.42443C273.907 2.23362 273.677 2.07647 273.413 1.96422C273.15 1.85198 272.862 1.78463 272.541 1.78463C272.231 1.78463 271.944 1.85198 271.68 1.96422C271.416 2.07647 271.198 2.23362 271.003 2.42443C270.808 2.62647 270.67 2.86218 270.566 3.13157C270.464 3.41218 270.406 3.70403 270.406 4.01831C270.406 4.35504 270.464 4.6581 270.566 4.93872C270.67 5.21932 270.819 5.45504 271.003 5.65708C271.198 5.85912 271.416 6.01627 271.68 6.12851C271.944 6.24076 272.231 6.29688 272.541 6.29688C272.862 6.29688 273.15 6.24076 273.413 6.12851C273.677 6.01627 273.895 5.85912 274.091 5.65708C274.286 5.45504 274.423 5.21932 274.538 4.93872C274.642 4.6581 274.688 4.35504 274.688 4.01831ZM276.628 4.01831C276.628 4.60198 276.525 5.12953 276.318 5.61218C276.111 6.09484 275.835 6.49892 275.469 6.83566C275.101 7.18362 274.677 7.44177 274.171 7.63259C273.677 7.82341 273.126 7.91321 272.541 7.91321C271.955 7.91321 271.416 7.82341 270.922 7.63259C270.429 7.44177 269.992 7.18362 269.637 6.83566C269.269 6.49892 268.982 6.09484 268.788 5.61218C268.581 5.12953 268.478 4.60198 268.478 4.01831C268.478 3.43463 268.581 2.90708 268.788 2.43566C268.982 1.96422 269.269 1.56014 269.637 1.23463C269.992 0.8979 270.429 0.65096 270.922 0.471368C271.416 0.291777 271.955 0.201981 272.541 0.201981C273.126 0.201981 273.677 0.291777 274.171 0.471368C274.677 0.65096 275.101 0.8979 275.469 1.23463C275.835 1.56014 276.111 1.96422 276.318 2.43566C276.525 2.90708 276.628 3.43463 276.628 4.01831Z" fill="#414145"/>
<path fill-rule="evenodd" clip-rule="evenodd" d="M217.44 11.8194H217.371H210.61H209.772H209.531L209.209 12.7622L198.981 43.7979H206.833L208.727 38.0509H218.439L220.344 43.7979H228.426L217.44 11.8194ZM213.571 23.3244L216.372 31.7764H210.793L213.571 23.3244Z" fill="url(#paint0_linear)"/>
<path fill-rule="evenodd" clip-rule="evenodd" d="M271.554 11.8194L275.423 23.0775V11.8194H271.554Z" fill="url(#paint1_linear)"/>
<path fill-rule="evenodd" clip-rule="evenodd" d="M191.807 11.8306H179.799V43.7979H187.697V31.7429H191.623C193.31 31.7429 194.94 31.5633 196.513 31.2041C198.086 30.8337 199.463 30.2724 200.669 29.4868C201.874 28.701 202.827 27.6684 203.527 26.3888C204.239 25.1092 204.595 23.5378 204.595 21.6745C204.595 19.845 204.262 18.2959 203.596 17.05C202.942 15.8041 202.035 14.7939 200.875 14.0195C199.727 13.2561 198.361 12.695 196.812 12.3582C195.262 12.0102 193.586 11.8306 191.807 11.8306ZM187.697 18.0602H191.152C191.864 18.0602 192.553 18.1051 193.207 18.195C193.873 18.2847 194.47 18.4643 194.986 18.745C195.514 19.0143 195.928 19.3847 196.238 19.8674C196.548 20.35 196.697 20.9674 196.697 21.7195C196.697 22.4714 196.548 23.1 196.238 23.5939C195.928 24.0878 195.503 24.4919 194.963 24.7837C194.424 25.0868 193.815 25.3 193.138 25.4235C192.461 25.5469 191.761 25.6031 191.014 25.6031H187.697V18.0602Z" fill="url(#paint2_linear)"/>
<path fill-rule="evenodd" clip-rule="evenodd" d="M228.954 11.6286V43.7979H236.714V31.0245H239.423L246.564 43.7979H251.844H255.861H259.685L261.579 38.051H271.29L273.173 43.7979L281.266 43.8091L270.314 11.8081H262.646V11.8194H262.382L262.061 12.7622L253.233 39.5776L247.263 30.0255C249.399 29.3969 251.074 28.3306 252.28 26.849C253.486 25.3673 254.094 23.5377 254.094 21.349C254.094 19.5081 253.738 17.9591 253.026 16.7245C252.314 15.4786 251.361 14.4796 250.168 13.7276C248.974 12.9642 247.631 12.4255 246.127 12.1112C244.624 11.7969 243.085 11.6286 241.501 11.6286H228.954ZM236.668 17.9031H240.915C241.512 17.9031 242.121 17.948 242.763 18.0377C243.406 18.1276 243.98 18.3071 244.485 18.5653C245.002 18.8235 245.427 19.1826 245.749 19.6541C246.081 20.1255 246.242 20.7317 246.242 21.4949C246.242 22.3031 246.059 22.9765 245.703 23.4928C245.346 24.0091 244.888 24.402 244.325 24.6714C243.763 24.9408 243.142 25.1317 242.465 25.2439C241.776 25.3449 241.11 25.401 240.457 25.401H236.668V17.9031ZM266.434 23.3132L269.223 31.7765H263.644L266.434 23.3132Z" fill="url(#paint3_linear)"/>
<path d="M88 0V43.9887H171.157V0H88Z" fill="white"/>
<path d="M117.753 34.0735L88.0096 7V43.6928H114.527L117.753 34.0735Z" fill="#EB2939"/>
<path d="M119.417 43.9887H128.303L124.4 40.4305L119.417 43.9887Z" fill="#EC283A"/>
<path fill-rule="evenodd" clip-rule="evenodd" d="M124.526 19.699L108.328 19.6654L121.449 28.948L116.41 44L129.496 34.6613L142.583 44L137.543 28.948L150.664 19.6654L134.467 19.699L129.496 4.62452L124.526 19.699Z" fill="#0071CE"/>
<path d="M128.521 0L171.166 34.6051V0H128.521Z" fill="#EB2939"/>
<path d="M14.8968 19.32C14.4888 18.768 13.6368 18.288 12.4967 18.288C11.2488 18.288 9.78475 18.984 9.78475 20.628C9.78475 22.164 10.9368 22.656 12.0648 23.004C13.1448 23.34 14.1408 23.64 14.1408 24.828C14.1408 25.92 13.1328 26.472 12.2568 26.472C11.3688 26.472 10.6848 26.004 10.3128 25.404L9.56875 25.956C10.1808 26.796 11.2128 27.216 12.2448 27.216C13.5888 27.216 15.0168 26.472 15.0168 24.768C15.0168 23.064 13.6968 22.68 12.4967 22.284C11.5488 21.972 10.6488 21.696 10.6488 20.616C10.6488 19.524 11.6208 19.02 12.4608 19.02C13.2648 19.02 13.8528 19.356 14.2128 19.872L14.8968 19.32ZM17.7342 22.956H21.8502V22.2H17.7342V19.272H22.1382V18.504H16.8702V27H22.2822V26.232H17.7342V22.956ZM30.4518 25.2C29.8638 26.076 28.9278 26.46 27.9558 26.46C25.7718 26.46 24.4277 24.732 24.4277 22.752C24.4277 20.772 25.7598 19.044 27.9558 19.044C29.0358 19.044 29.8878 19.608 30.2478 20.16L30.9678 19.632C30.3798 18.804 29.1918 18.288 27.9438 18.288C25.4118 18.288 23.5158 20.172 23.5158 22.752C23.5158 25.332 25.3758 27.216 27.9438 27.216C29.4678 27.216 30.5598 26.484 31.1238 25.632L30.4518 25.2ZM33.4725 23.028H34.9125L37.2645 27H38.3205L35.8365 22.956C37.0725 22.824 38.0085 22.032 38.0085 20.772C38.0085 19.116 36.7845 18.504 35.1045 18.504H32.6085V27H33.4725V23.028ZM33.4725 19.248H35.0085C36.2925 19.248 37.1445 19.656 37.1445 20.772C37.1445 21.78 36.3525 22.284 34.9725 22.284H33.4725V19.248ZM40.6561 22.956H44.7721V22.2H40.6561V19.272H45.0601V18.504H39.7921V27H45.2041V26.232H40.6561V22.956ZM49.6176 19.272H52.4616V18.504H45.9096V19.272H48.7536V27H49.6176V19.272ZM53.8865 24.768H58.2785L59.2145 27H60.1745L56.5265 18.504H55.6865L52.0145 27H52.9625L53.8865 24.768ZM56.0825 19.464L57.9545 23.976H54.2105L56.0825 19.464ZM62.2889 23.028H63.7289L66.0809 27H67.1369L64.6529 22.956C65.8889 22.824 66.8249 22.032 66.8249 20.772C66.8249 19.116 65.6009 18.504 63.9209 18.504H61.4249V27H62.2889V23.028ZM62.2889 19.248H63.8249C65.1089 19.248 65.9609 19.656 65.9609 20.772C65.9609 21.78 65.1689 22.284 63.7889 22.284H62.2889V19.248ZM69.4725 18.504H68.6085V27H69.4725V18.504ZM72.5897 24.768H76.9817L77.9177 27H78.8777L75.2297 18.504H74.3897L70.7177 27H71.6657L72.5897 24.768ZM74.7857 19.464L76.6577 23.976H72.9137L74.7857 19.464ZM12.1518 38.728C12.1518 35.512 9.70375 34.504 7.29175 34.504H4.21975V43H7.38775C9.72775 43 12.1518 41.716 12.1518 38.728ZM10.0158 38.728C10.0158 40.624 8.65975 41.224 7.19575 41.224H6.22375V36.256H7.24375C8.65975 36.256 10.0158 36.82 10.0158 38.728ZM19.4407 43V41.248H15.4927V39.484H19.0207V37.84H15.4927V36.244H19.2247V34.504H13.5127V43H19.4407ZM29.5448 36.256V34.504H22.6928V36.256H25.0928V43H27.1448V36.256H29.5448ZM37.6815 39.796V34.504H35.6295V39.628C35.6295 40.54 35.1975 41.38 34.0335 41.38C32.8815 41.38 32.4375 40.54 32.4375 39.628V34.504H30.3975V39.796C30.3975 41.836 31.7895 43.228 34.0215 43.228C36.2415 43.228 37.6815 41.836 37.6815 39.796ZM46.2888 43L44.0688 39.364C45.1608 39.028 45.8328 38.212 45.8328 37.072C45.8328 35.128 44.2128 34.504 42.5808 34.504H39.3408V43H41.3568V39.628H42.0528L43.8888 43H46.2888ZM43.8048 37.108C43.8048 37.972 42.9768 38.14 42.3168 38.14H41.3448V36.16H42.4368C43.0488 36.16 43.8048 36.316 43.8048 37.108ZM49.3619 43V34.504H47.2979V43H49.3619ZM56.9142 35.332C56.1702 34.648 55.0902 34.288 54.1302 34.288C52.5462 34.288 50.8422 35.068 50.8422 36.952C50.8422 38.488 51.9342 39.04 53.0142 39.388C54.1302 39.748 54.7782 39.952 54.7782 40.6C54.7782 41.284 54.2262 41.524 53.6022 41.524C52.9302 41.524 52.1742 41.14 51.7662 40.624L50.4222 41.992C51.1662 42.772 52.3902 43.216 53.6022 43.216C55.2822 43.216 56.8542 42.34 56.8542 40.384C56.8542 38.692 55.3662 38.2 54.2142 37.828C53.4102 37.576 52.9062 37.396 52.9062 36.832C52.9062 36.16 53.5662 35.98 54.0942 35.98C54.6222 35.98 55.2582 36.268 55.6062 36.712L56.9142 35.332ZM67.916 43V34.504H64.952L63.104 39.952H63.056L61.124 34.504H58.208V43H60.14L60.092 36.988H60.128L62.276 43H63.716L65.924 36.988H65.96L65.912 43H67.916ZM78.525 38.716C78.525 35.992 76.557 34.276 73.893 34.276C71.241 34.276 69.273 35.992 69.273 38.716C69.273 41.404 71.241 43.228 73.893 43.228C76.557 43.228 78.525 41.404 78.525 38.716ZM76.329 38.716C76.329 40.252 75.321 41.356 73.893 41.356C72.465 41.356 71.469 40.252 71.469 38.716C71.469 37.228 72.453 36.124 73.893 36.124C75.333 36.124 76.329 37.228 76.329 38.716Z" fill="#010101"/>
<defs>
<linearGradient id="paint0_linear" x1="213.703" y1="11.8219" x2="213.703" y2="43.7936" gradientUnits="userSpaceOnUse">
<stop stop-color="#1689CA"/>
<stop offset="1" stop-color="#1262AF"/>
</linearGradient>
<linearGradient id="paint1_linear" x1="273.488" y1="11.8202" x2="273.488" y2="23.076" gradientUnits="userSpaceOnUse">
<stop stop-color="#1689CA"/>
<stop offset="1" stop-color="#1262AF"/>
</linearGradient>
<linearGradient id="paint2_linear" x1="192.197" y1="11.8332" x2="192.197" y2="43.7937" gradientUnits="userSpaceOnUse">
<stop stop-color="#1689CA"/>
<stop offset="1" stop-color="#1262AF"/>
</linearGradient>
<linearGradient id="paint3_linear" x1="255.109" y1="11.6311" x2="255.109" y2="43.8049" gradientUnits="userSpaceOnUse">
<stop stop-color="#1689CA"/>
<stop offset="1" stop-color="#1262AF"/>
</linearGradient>
</defs>
</svg>
